<?xml version="1.0" encoding="UTF-8"?>
<svg width="14px" height="14px" viewBox="0 0 14 14" version="1.1" xmlns="http://www.w3.org/2000/svg" xmlns:xlink="http://www.w3.org/1999/xlink">
    <!-- Generator: Sketch 49.3 (51167) - http://www.bohemiancoding.com/sketch -->
    <title>Icons / White / Close</title>
    <desc>Created with Sketch.</desc>
    <defs></defs>
    <g id="Icons-/-White-/-Close" stroke="none" stroke-width="1" fill="none" fill-rule="evenodd">
        <path d="M13.6354167,11.7760417 C13.8784734,12.0434041 14,12.3593732 14,12.7239583 C14,13.0885435 13.8784734,13.3923599 13.6354167,13.6354167 C13.3923599,13.8784734 13.0885435,14 12.7239583,14 C12.3593732,14 12.0434041,13.8784734 11.7760417,13.6354167 L7,8.859375 L2.22395833,13.6354167 C1.95659589,13.8784734 1.65277948,14 1.3125,14 C0.972220521,14 0.668404115,13.8784734 0.401041667,13.6354167 C0.133679219,13.3923599 0,13.0885435 0,12.7239583 C0,12.3593732 0.133679219,12.0434041 0.401041667,11.7760417 L5.140625,7 L0.401041667,2.22395833 C0.133679219,1.95659589 0,1.64062682 0,1.27604167 C0,0.91145651 0.133679219,0.607640104 0.401041667,0.364583333 C0.668404115,0.121526562 0.972220521,0 1.3125,0 C1.65277948,0 1.95659589,0.121526562 2.22395833,0.364583333 L7,5.140625 L11.7760417,0.364583333 C12.0434041,0.121526562 12.3593732,0 12.7239583,0 C13.0885435,0 13.3923599,0.121526562 13.6354167,0.364583333 C13.8784734,0.607640104 14,0.91145651 14,1.27604167 C14,1.64062682 13.8784734,1.95659589 13.6354167,2.22395833 L8.859375,7 L13.6354167,11.7760417 Z" id="ion-close-round---Ionicons" fill="#FFFFFF"></path>
    </g>
</svg>