<?xml version="1.0" encoding="UTF-8"?>
<svg width="21px" height="20px" viewBox="0 0 21 20" version="1.1" xmlns="http://www.w3.org/2000/svg" xmlns:xlink="http://www.w3.org/1999/xlink">
    <!-- Generator: Sketch 50.2 (55047) - http://www.bohemiancoding.com/sketch -->
    <title>Icons / White / close-thin</title>
    <desc>Created with Sketch.</desc>
    <defs></defs>
    <g id="Icons-/-White-/-close-thin" stroke="none" stroke-width="1" fill="none" fill-rule="evenodd">
        <path d="M19.70725,0.29325 C19.31625,-0.09775 18.68425,-0.09775 18.29325,0.29325 L10.00025,8.58625 L1.70725,0.29325 C1.31625,-0.09775 0.68425,-0.09775 0.29325,0.29325 C-0.09775,0.68425 -0.09775,1.31625 0.29325,1.70725 L8.58625,10.00025 L0.29325,18.29325 C-0.09775,18.68425 -0.09775,19.31625 0.29325,19.70725 C0.48825,19.90225 0.74425,20.00025 1.00025,20.00025 C1.25625,20.00025 1.51225,19.90225 1.70725,19.70725 L10.00025,11.41425 L18.29325,19.70725 C18.48825,19.90225 18.74425,20.00025 19.00025,20.00025 C19.25625,20.00025 19.51225,19.90225 19.70725,19.70725 C20.09825,19.31625 20.09825,18.68425 19.70725,18.29325 L11.41425,10.00025 L19.70725,1.70725 C20.09825,1.31625 20.09825,0.68425 19.70725,0.29325 Z" id="Shape" fill="#FFFFFF" fill-rule="nonzero"></path>
    </g>
</svg>