<?xml version="1.0" encoding="UTF-8"?>
<svg width="16px" height="17px" viewBox="0 0 16 17" version="1.1" xmlns="http://www.w3.org/2000/svg" xmlns:xlink="http://www.w3.org/1999/xlink">
    <!-- Generator: Sketch 50.2 (55047) - http://www.bohemiancoding.com/sketch -->
    <title>Icons / Pink / Dislike / Unselectec</title>
    <desc>Created with Sketch.</desc>
    <defs></defs>
    <g id="Icons-/-Pink-/-Dislike-/-Unselectec" stroke="none" stroke-width="1" fill="none" fill-rule="evenodd">
        <g id="dislike" transform="translate(8.000000, 8.500000) scale(-1, 1) translate(-8.000000, -8.500000) " fill="#ED047C" fill-rule="nonzero">
            <path d="M15.5030043,5.25575966 C15.5682403,5.08065236 15.6300429,4.84374249 15.6472103,4.56906438 C15.6712446,4.08494421 15.551073,3.40511588 14.8678112,2.78709013 C14.9124464,2.4712103 14.9124464,1.96992275 14.6343348,1.47206867 C14.2669528,0.812841202 13.5493562,0.36648927 12.4987124,0.143313305 C11.7948498,-0.00775965665 10.8712446,-0.0386609442 9.75193133,0.0471759657 C7.49613734,0.00254077253 5.29871245,0.280652361 5.1751073,0.297819742 L4.36824034,0.393957082 C4.13476395,0.229150215 3.84978541,0.133012876 3.54420601,0.133012876 L1.44978541,0.133012876 C0.660085837,0.133012876 0.0214592275,0.775072961 0.0214592275,1.56133906 L0.0214592275,7.1407382 C0.0214592275,7.93043777 0.663519313,8.56906438 1.44978541,8.56906438 L3.54420601,8.56906438 C3.79141631,8.56906438 4.02145923,8.5072618 4.22403433,8.39739056 C4.36824034,8.71327039 4.58111588,9.07378541 4.89699571,9.40683262 C4.91416309,9.424 4.93133047,9.44116738 4.95193133,9.45490129 C6.03004292,10.2823691 7.30042918,13.2626266 7.75021459,14.4780773 C7.7055794,14.8557597 7.66094421,15.672927 8.03862661,16.1158455 C8.20686695,16.3115536 8.44034335,16.4179914 8.70128755,16.4179914 C8.96566524,16.4179914 9.87896996,16.3561888 10.448927,15.5699227 C10.9879828,14.8214249 11.0188841,13.7021116 10.5381974,12.2394506 C10.1330472,11.0102661 10.095279,10.4643433 10.1090129,10.2446009 C10.2944206,10.2858026 10.4763948,10.3235708 10.6515021,10.3544721 L10.6549356,10.3544721 C10.6858369,10.3613391 11.4412017,10.5295794 12.344206,10.5707811 C13.6283262,10.6325837 14.5587983,10.4094077 15.1012876,9.91155365 C15.8497854,9.22829185 15.760515,8.35618884 15.5373391,7.79996567 C15.7296137,7.54932189 15.9630901,7.1407382 15.983691,6.61884979 C15.9974249,6.14503004 15.839485,5.68837768 15.5030043,5.25575966 Z M3.54420601,7.64545923 L1.44978541,7.64545923 C1.17167382,7.64545923 0.948497854,7.41884979 0.948497854,7.14417167 L0.948497854,1.56477253 C0.948497854,1.28666094 1.1751073,1.06348498 1.44978541,1.06348498 L3.54420601,1.06348498 C3.8223176,1.06348498 4.04549356,1.29009442 4.04549356,1.56477253 L4.04549356,7.14417167 C4.04549356,7.42228326 3.8223176,7.64545923 3.54420601,7.64545923 Z M14.5896996,7.97850644 C14.5896996,7.98193991 14.7098712,8.17078112 14.751073,8.42829185 C14.8025751,8.74760515 14.7133047,9.01198283 14.4729614,9.23172532 C13.8171674,9.82915021 11.9287554,9.69181116 10.8746781,9.45833476 C10.8609442,9.45490129 10.8472103,9.45146781 10.8300429,9.44803433 C10.6412017,9.41369957 10.4386266,9.37249785 10.232618,9.32786266 C10.0128755,9.2488927 9.71072961,9.25919313 9.48412017,9.46176824 C9.02746781,9.86691845 9.07896996,10.7870901 9.65236052,12.5347296 C10.0300429,13.6815107 10.0437768,14.5467468 9.69356223,15.030867 C9.39828326,15.4394506 8.91072961,15.4909528 8.72532189,15.4943863 C8.64291845,15.3570472 8.61888412,14.8866609 8.6806867,14.4986781 C8.69098712,14.4231416 8.68412017,14.3441717 8.66008584,14.2686352 C8.59484979,14.0935279 7.08755365,9.96648927 5.54592275,8.74417167 C5.14420601,8.30812017 4.96909871,7.79653219 4.90729614,7.56648927 C4.94849785,7.43258369 4.97253219,7.28837768 4.97253219,7.1407382 L4.97253219,1.56477253 C4.97253219,1.46176824 4.96223176,1.35876395 4.9416309,1.26262661 L5.28841202,1.22142489 L5.29184549,1.22142489 C5.31244635,1.21799142 7.54763948,0.929579399 9.75536481,0.977648069 C9.76909871,0.977648069 9.78626609,0.977648069 9.80343348,0.977648069 C10.8437768,0.895244635 11.6849785,0.91927897 12.3064378,1.05318455 C13.0755365,1.21799142 13.583691,1.50640343 13.8171674,1.91498712 C14.0609442,2.33730472 13.9270386,2.77335622 13.9167382,2.81455794 C13.8446352,3.00683262 13.9098712,3.21627468 14.0746781,3.33987983 C15.0909871,4.10211159 14.6240343,4.99138197 14.5622318,5.10125322 C14.448927,5.27979399 14.4763948,5.50640343 14.6240343,5.66090987 C14.9193133,5.96992275 15.0635193,6.27893562 15.0532189,6.58108155 C15.039485,7.03086695 14.6927039,7.36734764 14.6686695,7.3879485 C14.4969957,7.53558798 14.4660944,7.78623176 14.5896996,7.97850644 Z" id="Shape"></path>
        </g>
    </g>
</svg>