<?xml version="1.0" encoding="UTF-8"?>
<svg width="24px" height="24px" viewBox="0 0 24 24" version="1.1" xmlns="http://www.w3.org/2000/svg" xmlns:xlink="http://www.w3.org/1999/xlink">
    <!-- Generator: Sketch 50.2 (55047) - http://www.bohemiancoding.com/sketch -->
    <title>Icons / White / expand-button-white</title>
    <desc>Created with Sketch.</desc>
    <defs></defs>
    <g id="Icons-/-White-/-expand-button-white" stroke="none" stroke-width="1" fill="none" fill-rule="evenodd">
        <g id="expand-button-white" fill="#FFFFFF" fill-rule="nonzero">
            <path d="M11.639444,11.3374517 L0.931181467,11.3374517 C0.416988417,11.3374517 0,11.7544402 0,12.2686332 L0,22.9768958 C0,23.4910888 0.416988417,23.9079846 0.931181467,23.9079846 L11.6395367,23.9079846 C12.1536371,23.9079846 12.5704402,23.4910888 12.5704402,22.9768958 L12.5704402,12.2686332 C12.5704402,11.7544402 12.1536371,11.3374517 11.639444,11.3374517 Z M10.7081699,22.0456216 L1.86236293,22.0456216 L1.86236293,13.1996293 L10.7081699,13.1996293 L10.7081699,22.0456216 Z" id="Shape"></path>
            <path d="M22.9768031,9.26640927e-05 L0.931181467,9.26640927e-05 C0.416988417,9.26640927e-05 0,0.416988417 0,0.931181467 L0,9.57785328 C0,10.092139 0.416988417,10.5091274 0.931181467,10.5091274 C1.44546718,10.5091274 1.86236293,10.092139 1.86236293,9.57785328 L1.86236293,1.86236293 L22.0457143,1.86236293 L22.0457143,22.0457143 L14.362471,22.0457143 C13.8481853,22.0457143 13.4311969,22.4627027 13.4311969,22.9769884 C13.4311969,23.4911815 13.8481853,23.9080772 14.362471,23.9080772 L22.9768958,23.9080772 C23.4911815,23.9080772 23.9081699,23.4911815 23.9081699,22.9769884 L23.9081699,0.931181467 C23.9080772,0.416988417 23.4910888,9.26640927e-05 22.9768031,9.26640927e-05 Z" id="Shape"></path>
            <path d="M14.3027027,9.90356757 C14.4847876,10.0852819 14.7228417,10.1761853 14.9610811,10.1761853 C15.1992278,10.1761853 15.4375598,10.0852819 15.6193668,9.90356757 L18.5619151,6.96083398 L18.5619151,8.29992278 C18.5619151,8.81411583 18.9788108,9.23091892 19.4931892,9.23091892 C20.0073822,9.23091892 20.424278,8.81411583 20.424278,8.29992278 L20.424278,4.91620077 C20.424278,4.88237838 20.4179768,4.85013127 20.4143629,4.81723552 C20.4448494,4.54545174 20.3598764,4.26319691 20.1514749,4.0547027 C19.9526178,3.85566023 19.6860232,3.76938996 19.4258224,3.78847876 C19.4042317,3.78690347 19.3831042,3.78180695 19.3613282,3.78180695 L15.9778842,3.78180695 C15.4635058,3.78180695 15.0465174,4.19879537 15.0465174,4.71308108 C15.0465174,5.22727413 15.4635058,5.64426255 15.9778842,5.64426255 L17.2454363,5.64426255 L14.3027027,8.58671815 C13.9390888,8.95033205 13.9390888,9.53995367 14.3027027,9.90356757 Z" id="Shape"></path>
        </g>
    </g>
</svg>