<?xml version="1.0" encoding="UTF-8"?>
<svg width="56px" height="56px" viewBox="0 0 56 56" version="1.1" xmlns="http://www.w3.org/2000/svg" xmlns:xlink="http://www.w3.org/1999/xlink">
    <!-- Generator: Sketch 50.2 (55047) - http://www.bohemiancoding.com/sketch -->
    <title>Buttons / Contact / Selected / Phone</title>
    <desc>Created with Sketch.</desc>
    <defs></defs>
    <g id="Buttons-/-Contact-/-Selected-/-Phone" stroke="none" stroke-width="1" fill="none" fill-rule="evenodd">
        <g id="Info" fill="#282781">
            <circle id="Oval" cx="28" cy="28" r="28"></circle>
        </g>
        <g id="Icons-/-White-/-phone-call" transform="translate(12.000000, 12.000000)" fill="#FFFFFF" stroke="#FFFFFF">
            <g id="phone-call">
                <path d="M31.9781505,26.3379818 C31.8764156,25.5690299 31.4325005,24.9060283 30.7603729,24.5190643 L22.865829,19.9737057 C21.8989329,19.4170001 20.6723088,19.5790702 19.8831032,20.3682031 L18.3281215,21.9231778 C17.9143397,22.3370268 17.2596979,22.3736567 16.8056921,22.008256 C15.5798283,21.0218744 14.3728324,19.9363156 13.2182935,18.7817128 C12.0637546,17.6271792 10.9781909,16.4202578 9.99173576,15.1943304 C9.62633337,14.7402576 9.66289434,14.0856878 10.0768143,13.6718388 L11.6317269,12.1168641 C12.4208634,11.3278003 12.5831416,10.10132 12.0262952,9.13422093 L7.4809161,1.23971267 C7.09388122,0.567519057 6.43094576,0.123674993 5.66199039,0.0219405706 C4.89296591,-0.0800011912 4.13734942,0.17647737 3.58886571,0.724958605 L1.24585331,3.06802953 C-0.389438167,4.70338273 -0.415701248,7.69473414 1.171902,11.4911836 C2.69847815,15.1415971 5.54733131,19.1601068 9.19354544,22.8064427 C12.8398978,26.4527094 16.8584256,29.3015497 20.5089248,30.828119 C22.3776812,31.6095803 24.0511924,32.0000691 25.4641462,32 C26.921609,32 28.1017198,31.5844232 28.9321169,30.7540989 L31.2751293,28.411028 C31.8235439,27.8625467 32.0798163,27.1069337 31.9781505,26.3379818 Z M22.3485845,20.8721064 L30.2431285,25.4174649 C30.6335499,25.6422206 30.8913428,26.0273186 30.9503656,26.4739272 C30.999989,26.8487273 30.9026082,27.217791 30.6818601,27.5151845 L20.1901048,21.5273673 L20.6161888,21.1012853 C21.0744795,20.6429966 21.7870384,20.5487955 22.3485845,20.8721064 Z M5.52597528,1.04972087 C5.972655,1.10881253 6.35768559,1.36660424 6.58244227,1.75702391 L11.1278214,9.65153217 C11.4512719,10.213214 11.3570013,10.9256314 10.8987105,11.383851 L10.5073215,11.7752382 L4.48657929,1.3182251 C4.732692,1.13597397 5.02704585,1.03700407 5.33390922,1.03700407 C5.39756263,1.03700407 5.46176896,1.04121996 5.52597528,1.04972087 Z M28.1989623,30.0210167 C26.8997691,31.320204 24.2426365,31.2657429 20.9088839,29.8715942 C17.3799551,28.3958922 13.4798185,25.6263937 9.92670008,22.0733605 C6.37358166,18.5202581 3.60407065,14.62007 2.12836195,11.0912263 C0.73413791,7.75741968 0.679745687,5.10029902 1.97893884,3.80104263 L3.71831505,2.06160516 L9.74811113,12.5344452 L9.34372879,12.9388257 C8.55479966,13.7278204 8.48610097,14.9768316 9.18400779,15.8443387 C10.193685,17.0991554 11.304406,18.3340675 12.4851389,19.514795 C13.6660099,20.6955916 14.9009276,21.8063076 16.1556809,22.8159803 C17.0230537,23.513884 18.2720705,23.4452547 19.061207,22.6561909 L19.4301342,22.2872654 L29.9364724,28.2834453 L28.1989623,30.0210167 Z" id="Shape" stroke-width="0.5" fill-rule="nonzero"></path>
            </g>
        </g>
    </g>
</svg>