<?xml version="1.0" encoding="UTF-8"?>
<svg width="56px" height="56px" viewBox="0 0 56 56" version="1.1" xmlns="http://www.w3.org/2000/svg" xmlns:xlink="http://www.w3.org/1999/xlink">
    <!-- Generator: Sketch 50.2 (55047) - http://www.bohemiancoding.com/sketch -->
    <title>Buttons / Contact / Selected / Email</title>
    <desc>Created with Sketch.</desc>
    <defs></defs>
    <g id="Buttons-/-Contact-/-Selected-/-Email" stroke="none" stroke-width="1" fill="none" fill-rule="evenodd">
        <g id="Email">
            <circle id="Oval" fill="#282781" cx="28" cy="28" r="28"></circle>
            <g id="Icons-/-White-/-004-contact" transform="translate(12.000000, 12.000000)" fill="#FFFFFF">
                <g id="004-contact">
                    <path d="M16.3813034,28.2557124 C16.2809888,28.1219596 16.1418427,28.0449438 16,28.0449438 C15.8581573,28.0449438 15.7190112,28.1218876 15.6186966,28.2557124 C15.518382,28.3893933 15.4606742,28.5749213 15.4606742,28.7640449 C15.4606742,28.9539596 15.518382,29.1386966 15.6186966,29.2724494 C15.7190112,29.4069933 15.8581573,29.4831461 16,29.4831461 C16.1418427,29.4831461 16.2809888,29.4069213 16.3813034,29.2724494 C16.481618,29.1386966 16.5393258,28.9538876 16.5393258,28.7640449 C16.5393258,28.5749213 16.481618,28.3893933 16.3813034,28.2557124 Z" id="Shape" fill-rule="nonzero"></path>
                    <path d="M25.7300785,6.32305618 C25.6291741,6.18930337 25.4904981,6.11235955 25.3485844,6.11235955 C25.2061312,6.11235955 25.0674551,6.18923146 24.9670903,6.32305618 C24.8661859,6.45673708 24.8089888,6.64226517 24.8089888,6.83146067 C24.8089888,7.02058427 24.8661859,7.20611236 24.9670903,7.33979326 C25.0674551,7.47426517 25.2061312,7.5505618 25.3485844,7.5505618 C25.4904981,7.5505618 25.6291741,7.47426517 25.7300785,7.33979326 C25.8304433,7.20611236 25.8876404,7.02058427 25.8876404,6.83146067 C25.8876404,6.64226517 25.8304433,6.45673708 25.7300785,6.32305618 Z" id="Shape" fill-rule="nonzero"></path>
                    <path d="M32,3.918545 C32,2.87177099 31.5969375,1.8877579 30.8650625,1.14764658 C30.1331875,0.407535254 29.1600625,0 28.125,0 C27.0899375,0 26.116875,0.407598457 25.3849375,1.14770978 L19.902375,6.69197156 L16.2370625,3.94976746 C15.125375,3.11801127 13.6315625,3.11801127 12.5198125,3.94976746 L7.1554375,7.96318071 L4,7.96318071 C3.6548125,7.96318071 3.375,8.24620535 3.375,8.59521429 L3.375,10.7916574 L0.25325,13.1272111 C0.0939375,13.2464126 0,13.434885 0,13.6353029 L0,29.4659744 C0,31.06148 1.283625,32.3595506 2.861375,32.3595506 L25.8958125,32.3595506 C27.4735625,32.3595506 28.7571875,31.06148 28.7571875,29.4659744 L28.7571875,13.6353029 C28.7571875,13.434885 28.66325,13.2464126 28.503875,13.1272111 L26.2019375,11.405046 L30.8650625,6.68944343 C31.5969375,5.9492689 32,4.96519262 32,3.918545 Z M13.263375,4.96595106 C13.9304375,4.46689734 14.82675,4.46689734 15.4936875,4.96595106 L19.00875,7.59571638 L18.6453125,7.96324391 L9.25725,7.96324391 L13.263375,4.96595106 Z M4.6249375,9.22724787 L7.361,9.22724787 C7.361375,9.22724787 7.3616875,9.22731108 7.3620625,9.22731108 C7.3625625,9.22731108 7.363125,9.22724787 7.363625,9.22724787 L17.3953125,9.22724787 L16.055625,10.5820119 C15.9726875,10.6658827 15.918625,10.7677033 15.8920625,10.8749594 C15.891875,10.8747698 15.89175,10.8746434 15.8915625,10.874517 L14.3434375,17.0879759 C14.2896875,17.303689 14.352,17.5320427 14.5075,17.6893559 C14.6261875,17.8093159 14.78575,17.8744785 14.9495,17.8744785 C15.0003125,17.8744785 15.051625,17.8681582 15.1021875,17.8553279 L21.2464375,16.2897807 C21.2463125,16.2895279 21.24625,16.2892751 21.2461875,16.2890855 C21.35475,16.2614024 21.4551875,16.2052146 21.5356875,16.1238087 L24.132125,13.4980884 L24.132125,16.7864327 L18.430375,22.5523487 L17.6703125,21.7837326 C16.7910625,20.8945878 15.622,20.4049514 14.3785,20.4049514 C13.135,20.4049514 11.966,20.8945878 11.08675,21.7837326 L10.3266875,22.5523487 L4.6249375,16.7863695 L4.6249375,9.22724787 Z M16.4815,13.6806829 L16.834625,12.263474 L18.3538125,13.799758 L19.8730625,15.3361053 L18.4715625,15.6932042 L16.4815,13.6806829 Z M17.0595,16.0530209 L15.811125,16.3711234 L16.1256875,15.1086364 L17.0595,16.0530209 Z M3.375,12.3640305 L3.375,15.5223656 L1.579875,13.7071019 L3.375,12.3640305 Z M2.087,30.8848266 C2.085,30.8868491 2.0833125,30.8891244 2.0813125,30.8912101 C1.5860625,30.6128626 1.25,30.078415 1.25,29.4659744 L1.25,15.1611584 L9.4428125,23.4461706 L2.087,30.8848266 Z M3.6465,31.0954834 L5.415625,29.3064491 L13.6874375,29.3064491 C14.032625,29.3064491 14.3124375,29.0234245 14.3124375,28.6744156 C14.3124375,28.3254066 14.032625,28.042382 13.6874375,28.042382 L6.6655625,28.042382 L8.0991875,26.5926233 L12.20775,26.5926233 C12.5529375,26.5926233 12.83275,26.3095987 12.83275,25.9605898 C12.83275,25.6115808 12.5529375,25.3285562 12.20775,25.3285562 L9.349125,25.3285562 L11.970625,22.6775545 C12.6138125,22.0271288 13.4689375,21.6689553 14.3785,21.6689553 C15.288125,21.6689553 16.14325,22.0271288 16.786375,22.6775545 L25.110625,31.0954834 L3.6465,31.0954834 Z M27.507125,29.4659744 C27.5071875,30.0784782 27.171125,30.6128626 26.675875,30.8911469 C26.673875,30.8890612 26.6721875,30.8868491 26.6701875,30.8847634 L19.3143125,23.4462338 L27.507125,15.1612216 L27.507125,29.4659744 Z M27.1773125,13.7071019 L25.3821875,15.5224288 L25.3821875,12.3640937 L27.1773125,13.7071019 Z M21.09375,14.7830127 L19.6795,13.3528471 L24.3065625,8.67377606 C24.550625,8.42696695 24.550625,8.02676329 24.3065625,7.77989097 C24.0625,7.53301865 23.6668125,7.53314506 23.422625,7.77989097 L18.7955625,12.4590252 L17.381375,11.0289228 L24.8895,3.43642979 L28.6018125,7.19051965 L21.09375,14.7830127 Z M29.981125,5.79549513 L29.485625,6.29663456 L25.7733125,2.5426079 L26.2688125,2.04153167 C26.764625,1.54007623 27.4238125,1.26400396 28.125,1.26400396 C28.8261875,1.26400396 29.485375,1.54007623 29.9811875,2.04153167 C30.477,2.54286071 30.75,3.20940333 30.75,3.9184818 C30.75,4.62756028 30.4769375,5.2941661 29.981125,5.79549513 Z" id="Shape" fill-rule="nonzero"></path>
                </g>
            </g>
        </g>
    </g>
</svg>