<?xml version="1.0" encoding="UTF-8"?>
<svg width="16px" height="18px" viewBox="0 0 16 18" version="1.1" xmlns="http://www.w3.org/2000/svg" xmlns:xlink="http://www.w3.org/1999/xlink">
    <!-- Generator: Sketch 50.2 (55047) - http://www.bohemiancoding.com/sketch -->
    <title>Icons / Pink / Like / Selected</title>
    <desc>Created with Sketch.</desc>
    <defs></defs>
    <g id="Icons-/-Pink-/-Like-/-Selected" stroke="none" stroke-width="1" fill="none" fill-rule="evenodd">
        <g id="like">
            <path d="M15.504721,11.1622318 C15.8412017,10.7330472 16.0025751,10.2729614 15.9819742,9.79914163 C15.9613734,9.27725322 15.727897,8.86866953 15.5356223,8.61802575 C15.7587983,8.06180258 15.8446352,7.18626609 15.0995708,6.50643777 C14.5536481,6.00858369 13.6266094,5.78540773 12.3424893,5.8472103 C11.439485,5.88841202 10.6841202,6.05665236 10.6532189,6.06351931 L10.6497854,6.06351931 C10.4781116,6.0944206 10.2961373,6.13218884 10.1107296,6.17339056 C10.0969957,5.95364807 10.1347639,5.40772532 10.5399142,4.17854077 C11.0206009,2.71587983 10.993133,1.59656652 10.4506438,0.84806867 C9.8806867,0.0618025751 8.97081545,0 8.70300429,0 C8.44549356,0 8.20858369,0.106437768 8.04034335,0.302145923 C7.65922747,0.745064378 7.70386266,1.56223176 7.75193133,1.93991416 C7.29871245,3.15536481 6.02832618,6.13562232 4.95364807,6.96309013 C4.93304721,6.97682403 4.91587983,6.99399142 4.89871245,7.0111588 C4.58283262,7.34420601 4.36995708,7.70472103 4.22575107,8.02060086 C4.02317597,7.91072961 3.79313305,7.84892704 3.54592275,7.84892704 L1.45150215,7.84892704 C0.661802575,7.84892704 0.0231759657,8.49098712 0.0231759657,9.27725322 L0.0231759657,14.8566524 C0.0231759657,15.6463519 0.665236052,16.2849785 1.45150215,16.2849785 L3.54592275,16.2849785 C3.85150215,16.2849785 4.13648069,16.1888412 4.36995708,16.0240343 L5.17682403,16.1201717 C5.30042918,16.1373391 7.49785408,16.4154506 9.75364807,16.3708155 C10.1622318,16.4017167 10.5467811,16.4188841 10.9038627,16.4188841 C11.5184549,16.4188841 12.0540773,16.3708155 12.5004292,16.2746781 C13.551073,16.0515021 14.2686695,15.6051502 14.632618,14.9493562 C14.9107296,14.4480687 14.9107296,13.9502146 14.8660944,13.6343348 C15.5493562,13.016309 15.6695279,12.3330472 15.6454936,11.8523605 C15.6317597,11.5742489 15.5699571,11.3373391 15.504721,11.1622318 Z M1.45150215,15.3579399 C1.17339056,15.3579399 0.950214592,15.1313305 0.950214592,14.8566524 L0.950214592,9.27381974 C0.950214592,8.99570815 1.17682403,8.77253219 1.45150215,8.77253219 L3.54592275,8.77253219 C3.82403433,8.77253219 4.0472103,8.99914163 4.0472103,9.27381974 L4.0472103,14.8532189 C4.0472103,15.1313305 3.82060086,15.3545064 3.54592275,15.3545064 L1.45150215,15.3545064 L1.45150215,15.3579399 Z M14.6257511,10.760515 C14.4815451,10.911588 14.4540773,11.1416309 14.5639485,11.3201717 C14.5639485,11.3236052 14.704721,11.5639485 14.7218884,11.8935622 C14.7459227,12.3433476 14.5296137,12.7416309 14.0763948,13.0815451 C13.9150215,13.2051502 13.8497854,13.4180258 13.9184549,13.6103004 C13.9184549,13.6137339 14.0660944,14.0669528 13.8257511,14.4961373 C13.5957082,14.9081545 13.0841202,15.2034335 12.3081545,15.3682403 C11.6866953,15.5021459 10.8420601,15.5261803 9.80515021,15.4437768 C9.79141631,15.4437768 9.77424893,15.4437768 9.75708155,15.4437768 C7.54935622,15.4918455 5.31759657,15.2034335 5.29356223,15.2 L5.29012876,15.2 L4.94334764,15.1587983 C4.9639485,15.0626609 4.97424893,14.9596567 4.97424893,14.8566524 L4.97424893,9.27381974 C4.97424893,9.12618026 4.95021459,8.98197425 4.90901288,8.84806867 C4.97081545,8.61802575 5.14248927,8.10643777 5.54763948,7.67038627 C7.08927039,6.44806867 8.59656652,2.32446352 8.66180258,2.14592275 C8.68927039,2.07381974 8.69613734,1.99484979 8.68240343,1.91587983 C8.62403433,1.53133047 8.64463519,1.06094421 8.72703863,0.920171674 C8.90901288,0.92360515 9.4,0.975107296 9.69527897,1.38369099 C10.0454936,1.86781116 10.0317597,2.73304721 9.65407725,3.87982833 C9.07725322,5.62746781 9.02918455,6.54763948 9.48583691,6.9527897 C9.71244635,7.15536481 10.0145923,7.16566524 10.2343348,7.08669528 C10.4437768,7.03862661 10.6429185,6.99742489 10.8317597,6.96652361 C10.8454936,6.96309013 10.8626609,6.95965665 10.8763948,6.95622318 C11.9304721,6.72618026 13.8188841,6.58540773 14.4746781,7.18283262 C15.0309013,7.69098712 14.6360515,8.3639485 14.5914163,8.4360515 C14.4643777,8.62832618 14.5021459,8.87896996 14.6738197,9.03347639 C14.6772532,9.03690987 15.0377682,9.37682403 15.0549356,9.83347639 C15.0686695,10.1390558 14.9244635,10.4515021 14.6257511,10.760515 Z" id="Shape" fill="#ED047C" fill-rule="nonzero"></path>
            <path d="M4.81445158,15.4252745 C10.8900144,15.8968628 14.1029699,15.4850106 14.4533181,14.1897181 C14.8036664,12.8944255 14.9788405,11.7876991 14.9788405,10.8695388 C15.2663582,8.73469132 15.0367433,7.39511235 14.2899958,6.85080193 C13.1698746,6.03433628 10.7957527,6.85080193 9.89664604,6.85080193 C8.9975394,6.85080193 10.499921,1.71197787 10.499921,1.71197787 C10.499921,1.71197787 9.21119558,0.615114218 9.21119558,0.615114218 C9.21119558,0.615114218 8.63778136,0.613590543 8.44589202,0.852210633 C8.29842572,1.03558934 8.29816958,1.4157719 8.20518615,1.71197787 C7.99120875,2.3936195 5.7274769,7.61280579 4.81445158,8.04926833 C4.20576804,8.34024336 4.20576804,10.7989121 4.81445158,15.4252745 Z" id="Path-4" fill="#ED047C"></path>
            <polygon id="Path-2" fill="#ED047C" points="5 8.20944206 0.835860051 8.20944206 0.835860051 15.6629659 5 15.6629659"></polygon>
            <path d="M4.5,7.5 L4.5,17.5" id="Line" stroke="#FFFFFF" stroke-linecap="round"></path>
        </g>
    </g>
</svg>