<?xml version="1.0" encoding="UTF-8"?>
<svg width="246px" height="70px" viewBox="0 0 246 70" version="1.1" xmlns="http://www.w3.org/2000/svg" xmlns:xlink="http://www.w3.org/1999/xlink">
    <!-- Generator: Sketch 50 (54983) - http://www.bohemiancoding.com/sketch -->
    <title>Logos / livelo_logotipo</title>
    <desc>Created with Sketch.</desc>
    <defs></defs>
    <g id="Logos-/-livelo_logotipo" stroke="none" stroke-width="1" fill="none" fill-rule="evenodd">
        <g id="livelo_logotipo" fill="#FFFFFF" fill-rule="nonzero">
            <path d="M113.42,57.37 C107.03,47.82 106.89,35.66 113.15,26.71 C120.09,16.79 129.75,12.71 141.79,14.82 C152.3,16.67 160.79,24.94 163.21,36.05 L113.42,57.37 Z M120.89,43.12 L147.82,31.62 C142.5,26.07 136.18,24.73 129.88,27.52 C123.86,30.19 120.43,35.89 120.89,43.12 Z" id="Shape"></path>
            <path d="M52.41,26.43 L57,15.51 C63.65,17.05 68.87,19.51 71.15,26.56 C73.88,34.92 77.23,43.07 80.7,52.38 C81.89,49.63 82.76,47.79 83.48,45.9 C86.54,37.81 89.91,29.83 92.48,21.58 C93.95,16.8 96.48,15.22 101.1,15.87 C102.848276,15.9798489 104.601724,15.9798489 106.35,15.87 C105.7,17.93 105.3,19.44 104.75,20.87 C99.27,35.49 93.56,50.03 88.42,64.78 C86.9,69.12 84.25,69.03 80.82,69.08 C77.39,69.13 74.68,68.95 73.31,64.65 C70.54,55.95 66.99,47.51 63.84,38.92 C61.75,33.41 60.57,27.2 52.41,26.43 Z" id="Shape"></path>
            <path d="M179.15,2.18 L179.15,22.74 C179.15,31.41 179.4,40.08 179.05,48.74 C178.86,53.32 179.8,56.42 184.67,57.48 C185.91902,57.9287712 187.121363,58.4981256 188.26,59.18 C186.87,62.62 185.53,65.93 184.26,69.18 C172.42,67.89 167.95,63.08 167.94,51.92 C167.94,37.2533333 167.94,22.5866667 167.94,7.92 L167.94,2.2 L179.15,2.18 Z" id="Shape"></path>
            <path d="M0.94,2.06 L12.17,2.06 L12.17,13.58 C12.17,25.24 12.46,36.91 12.04,48.58 C11.87,53.5 13.04,56.49 18.04,57.58 C19.2207156,58.0249297 20.3504709,58.5948359 21.41,59.28 L17.17,69.35 C4.17,66.76 0.98,63.02 0.97,50.57 L0.94,2.06 Z" id="Shape"></path>
            <path d="M192.69,30 L202.62,34.77 C200,43 201.13,50 208.18,55.05 C214.91,59.83 221.69,58.4 228.38,53.92 L235.76,62.06 C227.63,71.43 211.98,72.54 201.07,64.75 C189.88,56.76 186,41.24 192.69,30 Z" id="Shape"></path>
            <path d="M241.67,54.07 L231.89,49.39 C234.08,41.31 233.49,34.12 226.31,29.09 C219.57,24.37 212.84,25.56 206.17,30.27 L198.76,22.18 C206.47,12.77 222.39,11.69 233.4,19.37 C244.85,27.35 248.44,44.46 241.67,54.07 Z" id="Shape"></path>
            <path d="M44.71,68.87 L33.64,68.87 L33.64,55.48 C33.64,52.82 33.64,50.16 33.64,47.48 C33.64,43.65 34.71,39.32 33.26,36.16 C32.01,33.44 27.86,32.06 24.6,29.81 C25.88,26.74 27.25,23.42 28.6,20.17 C41.86,22.92 44.7,26.38 44.71,39.4 L44.71,68.87 Z" id="Shape"></path>
            <path d="M148.16,52.89 C150.16,55.22 151.73,57.11 153.32,59.01 L155.46,61.56 C147.61,70.94 132.46,72.67 121.58,65.24 L127.29,55.76 C134.42,58.8 141.23,59 148.16,52.89 Z" id="Shape"></path>
            <path d="M47,8.66 C46.9334298,12.8489584 43.5968538,16.2514747 39.41,16.4 C37.3021911,16.5101041 35.242164,15.7467327 33.7150893,14.2896726 C32.1880147,12.8326125 31.3288706,10.8106533 31.34,8.7 C31.3678108,4.50432952 34.678374,1.06626785 38.87,0.88 C43.2541552,0.807105957 46.880025,4.27688048 47,8.66 Z" id="Shape"></path>
        </g>
    </g>
</svg>