<?xml version="1.0" encoding="UTF-8"?>
<svg width="32px" height="32px" viewBox="0 0 32 32" version="1.1" xmlns="http://www.w3.org/2000/svg" xmlns:xlink="http://www.w3.org/1999/xlink">
    <!-- Generator: Sketch 50.2 (55047) - http://www.bohemiancoding.com/sketch -->
    <title>Icons / White / 003-info</title>
    <desc>Created with Sketch.</desc>
    <defs></defs>
    <g id="Icons-/-White-/-003-info" stroke="none" stroke-width="1" fill="none" fill-rule="evenodd">
        <g id="003-info" fill="#FFFFFF" fill-rule="nonzero">
            <path d="M16,0 C7.16346667,0 0,7.16346667 0,16 C0,24.8365333 7.16346667,32 16,32 C24.8365333,32 32,24.8365333 32,16 C31.99,7.1676 24.8324,0.01 16,0 Z M16,30.9333333 C7.75253333,30.9333333 1.06666667,24.2474667 1.06666667,16 C1.06666667,7.75253333 7.75253333,1.06666667 16,1.06666667 C24.2474667,1.06666667 30.9333333,7.75253333 30.9333333,16 C30.9239333,24.2435333 24.2435333,30.9239333 16,30.9333333 Z" id="Shape" stroke="#FFFFFF" stroke-width="0.5"></path>
            <path d="M29.3100291,15.4606742 C29.0158635,15.4606742 28.7773616,15.699176 28.7773616,15.9933417 C28.7691719,23.0503204 23.0503204,28.7691719 15.9933417,28.7773616 C15.699176,28.7773616 15.4606742,29.0158635 15.4606742,29.3100291 C15.4606742,29.6041948 15.699176,29.8426966 15.9933417,29.8426966 C23.6385851,29.8341739 29.8341739,23.6385851 29.8426966,15.9933417 C29.8426966,15.699176 29.6041948,15.4606742 29.3100291,15.4606742 Z" id="Shape"></path>
            <path d="M16.0066583,2.15730337 C8.3614149,2.16582605 2.16582605,8.3614149 2.15730337,16.0066583 C2.15730337,16.300824 2.39580524,16.5393258 2.68997087,16.5393258 C2.9841365,16.5393258 3.22263837,16.300824 3.22263837,16.0066583 C3.23082813,8.94967957 8.94967957,3.23082813 16.0066583,3.22263837 C16.300824,3.22263837 16.5393258,2.9841365 16.5393258,2.68997087 C16.5393258,2.39580524 16.300824,2.15730337 16.0066583,2.15730337 Z" id="Shape"></path>
            <path d="M16,7.91011236 C15.1064045,7.91011236 14.3820225,8.63449438 14.3820225,9.52808989 C14.3820225,10.4216854 15.1064045,11.1460674 16,11.1460674 C16.8935955,11.1460674 17.6179775,10.4216854 17.6179775,9.52808989 C17.6179775,8.63449438 16.8935955,7.91011236 16,7.91011236 Z M16,10.0674157 C15.7021573,10.0674157 15.4606742,9.82593258 15.4606742,9.52808989 C15.4606742,9.23024719 15.7021573,8.98876404 16,8.98876404 C16.2978427,8.98876404 16.5393258,9.23024719 16.5393258,9.52808989 C16.5393258,9.82593258 16.2978427,10.0674157 16,10.0674157 Z" id="Shape"></path>
            <path d="M18.6966292,21.3932584 L17.6179775,21.3932584 L17.6179775,12.2247191 L12.2247191,12.2247191 L12.2247191,13.8426966 C12.2247191,14.4384494 12.707618,14.9213483 13.3033708,14.9213483 L14.3820225,14.9213483 L14.3820225,24.0898876 L19.7752809,24.0898876 L19.7752809,22.4719101 C19.7752809,21.8761573 19.292382,21.3932584 18.6966292,21.3932584 Z M18.6966292,23.011236 L15.4606742,23.011236 L15.4606742,13.8426966 L13.3033708,13.8426966 L13.3033708,13.3033708 L16.5393258,13.3033708 L16.5393258,22.4719101 L18.6966292,22.4719101 L18.6966292,23.011236 Z" id="Shape"></path>
        </g>
    </g>
</svg>