<?xml version="1.0" encoding="UTF-8"?>
<svg width="32px" height="42px" viewBox="0 0 32 42" version="1.1" xmlns="http://www.w3.org/2000/svg" xmlns:xlink="http://www.w3.org/1999/xlink">
    <!-- Generator: Sketch 50.2 (55047) - http://www.bohemiancoding.com/sketch -->
    <title>Icons / White / support-generic</title>
    <desc>Created with Sketch.</desc>
    <defs></defs>
    <g id="Icons-/-White-/-support-generic" stroke="none" stroke-width="1" fill="none" fill-rule="evenodd">
        <g id="support-generic" fill="#FFFFFF" fill-rule="nonzero">
            <path d="M2.13872081,9.70290355 C0.992406091,9.70290355 0.0595329949,10.6357766 0.0595329949,11.7820914 L0.0595329949,17.3266193 C0.0595329949,18.472934 0.992406091,19.4058071 2.13872081,19.4058071 C3.28503553,19.4058071 4.21790863,18.472934 4.21790863,17.3266193 L4.21790863,11.7820914 C4.21790863,10.6357766 3.28503553,9.70290355 2.13872081,9.70290355 Z M2.83183756,17.3265381 C2.83183756,17.7090761 2.5213401,18.0195736 2.13880203,18.0195736 C1.75626396,18.0195736 1.4457665,17.7090761 1.4457665,17.3265381 L1.4457665,11.7820102 C1.4457665,11.3994721 1.75626396,11.0889746 2.13880203,11.0889746 C2.5213401,11.0889746 2.83183756,11.3994721 2.83183756,11.7820102 L2.83183756,17.3265381 Z" id="Shape"></path>
            <path d="M29.8612792,9.70290355 C28.7149645,9.70290355 27.7820914,10.6357766 27.7820914,11.7820914 L27.7820914,17.3266193 C27.7820914,18.472934 28.7149645,19.4058071 29.8612792,19.4058071 C31.0075939,19.4058071 31.940467,18.472934 31.940467,17.3266193 L31.940467,11.7820914 C31.940467,10.6357766 31.0075939,9.70290355 29.8612792,9.70290355 Z M30.5543147,17.3265381 C30.5543147,17.7090761 30.2438173,18.0195736 29.8612792,18.0195736 C29.4787411,18.0195736 29.1682437,17.7090761 29.1682437,17.3265381 L29.1682437,11.7820102 C29.1682437,11.3994721 29.4787411,11.0889746 29.8612792,11.0889746 C30.2438173,11.0889746 30.5543147,11.3994721 30.5543147,11.7820102 L30.5543147,17.3265381 Z" id="Shape"></path>
            <path d="M29.9014822,10.3515939 C28.0592893,4.25681218 22.3429036,0 16,0 C9.65709645,0 3.94071066,4.25681218 2.09851777,10.3515939 C1.98765482,10.7175635 2.19484264,11.1049746 2.56146193,11.2151878 C2.92881218,11.3267817 3.31484264,11.1188629 3.42570558,10.7522437 C5.09254822,5.23817259 10.2628223,1.38615228 16,1.38615228 C21.7371777,1.38615228 26.9074518,5.23817259 28.5742132,10.7522437 C28.6650152,11.0523452 28.9401827,11.2449949 29.2374416,11.2449949 C29.3039594,11.2449949 29.3712081,11.2352487 29.4384569,11.2151878 C29.8050761,11.1049746 30.0123452,10.7174822 29.9014822,10.3515939 Z" id="Shape"></path>
            <path d="M29.8612792,18.0196548 C29.4787411,18.0196548 29.1682437,18.3294213 29.1682437,18.7126904 C29.1682437,20.6234315 27.6137259,22.1780305 25.7029036,22.1780305 C25.3203655,22.1780305 25.009868,22.487797 25.009868,22.871066 C25.009868,23.254335 25.3203655,23.5641015 25.7029036,23.5641015 C28.3781523,23.5641015 30.5543147,21.3872081 30.5543147,18.7126904 C30.5543147,18.3294213 30.2438173,18.0196548 29.8612792,18.0196548 Z" id="Shape"></path>
            <path d="M24.3167513,20.0988426 L20.1583756,20.0988426 C19.0120609,20.0988426 18.0791878,21.0317157 18.0791878,22.1780305 L18.0791878,23.5641827 C18.0791878,24.7104975 19.0120609,25.6433706 20.1583756,25.6433706 L24.3167513,25.6433706 C25.463066,25.6433706 26.3959391,24.7104975 26.3959391,23.5641827 L26.3959391,22.1780305 C26.3959391,21.0317157 25.463066,20.0988426 24.3167513,20.0988426 Z M25.0097868,23.5641015 C25.0097868,23.9466396 24.6992893,24.2571371 24.3167513,24.2571371 L20.1583756,24.2571371 C19.7758376,24.2571371 19.4653401,23.9466396 19.4653401,23.5641015 L19.4653401,22.1779492 C19.4653401,21.7954112 19.7758376,21.4849137 20.1583756,21.4849137 L24.3167513,21.4849137 C24.6992893,21.4849137 25.0097868,21.7954112 25.0097868,22.1779492 L25.0097868,23.5641015 Z" id="Shape"></path>
            <path d="M16,3.4653401 C9.88507614,3.4653401 4.91102538,8.44012183 4.91102538,14.5543147 C4.91102538,20.6685076 9.88507614,25.6432893 16,25.6432893 C17.1310457,25.6432893 18.2510457,25.4720812 19.3288122,25.1338883 C19.552,25.0632284 19.7252386,24.8851168 19.7883452,24.6598173 C19.8514518,24.433868 19.7966294,24.192 19.6420711,24.015269 C19.561665,23.9238173 19.4653401,23.7706396 19.4653401,23.5641015 L19.4653401,22.1779492 C19.4653401,21.7954112 19.7758376,21.4849137 20.1583756,21.4849137 L24.3022132,21.4849137 C24.5205279,21.4849137 24.7256853,21.383066 24.8566904,21.2090964 C26.3169949,19.2678173 27.0890558,16.9668223 27.0890558,14.5543147 C27.0889746,8.44012183 22.1149239,3.4653401 16,3.4653401 Z M23.949401,20.0988426 L20.1583756,20.0988426 C19.0120609,20.0988426 18.0791878,21.0317157 18.0791878,22.1780305 L18.0791878,23.5641827 C18.0791878,23.7187411 18.0972183,23.8719188 18.1318985,24.0208731 C17.4332589,24.1781929 16.7194315,24.2572183 16,24.2572183 C10.6495838,24.2572183 6.29709645,19.9048122 6.29709645,14.5543147 C6.29709645,9.20381726 10.6495838,4.85141117 16,4.85141117 C21.3504162,4.85141117 25.7029036,9.20389848 25.7029036,14.5543147 C25.7029036,16.550335 25.0978274,18.4604264 23.949401,20.0988426 Z" id="Shape"></path>
            <path d="M23.1995127,27.0294416 L8.79975635,27.0294416 C4.36280203,27.0294416 0.752568528,30.6395939 0.752568528,35.0766294 L0.752568528,40.8907208 C0.752568528,41.2739898 1.06306599,41.5837563 1.44560406,41.5837563 L30.5542335,41.5837563 C30.9367716,41.5837563 31.247269,41.2739898 31.247269,40.8907208 L31.247269,35.0766294 C31.2473503,30.6395939 27.637198,27.0294416 23.1995127,27.0294416 Z M29.8612792,40.1976041 L2.13872081,40.1976041 L2.13872081,35.0765482 C2.13872081,31.4040203 5.12722843,28.4155127 8.79975635,28.4155127 L23.2002437,28.4155127 C26.8727716,28.4155127 29.8612792,31.4032893 29.8612792,35.0765482 L29.8612792,40.1976041 Z" id="Shape"></path>
            <path d="M6.9902132,35.3461929 C6.60767513,35.3461929 6.29717766,35.6559594 6.29717766,36.0392284 L6.29717766,40.8906396 C6.29717766,41.2739086 6.60767513,41.5836751 6.9902132,41.5836751 C7.37275127,41.5836751 7.68324873,41.2739086 7.68324873,40.8906396 L7.68324873,36.0392284 C7.68324873,35.6559594 7.37275127,35.3461929 6.9902132,35.3461929 Z" id="Shape"></path>
            <path d="M25.7029036,35.3461929 C25.3203655,35.3461929 25.009868,35.6559594 25.009868,36.0392284 L25.009868,40.8906396 C25.009868,41.2739086 25.3203655,41.5836751 25.7029036,41.5836751 C26.0854416,41.5836751 26.3959391,41.2739086 26.3959391,40.8906396 L26.3959391,36.0392284 C26.3959391,35.6559594 26.0854416,35.3461929 25.7029036,35.3461929 Z" id="Shape"></path>
        </g>
    </g>
</svg>