<?xml version="1.0" encoding="UTF-8"?>
<svg width="56px" height="56px" viewBox="0 0 56 56" version="1.1" xmlns="http://www.w3.org/2000/svg" xmlns:xlink="http://www.w3.org/1999/xlink">
    <!-- Generator: Sketch 50.2 (55047) - http://www.bohemiancoding.com/sketch -->
    <title>Buttons / Contact / Unselected / Chat</title>
    <desc>Created with Sketch.</desc>
    <defs></defs>
    <g id="Buttons-/-Contact-/-Unselected-/-Chat" stroke="none" stroke-width="1" fill="none" fill-rule="evenodd">
        <g id="Chat" fill="#282781">
            <g id="Icons-/-Blue-/-Chat" transform="translate(13.000000, 14.000000)">
                <g id="chat">
                    <path d="M28.2753354,10.9589734 L20.0409765,10.9589734 L20.0409765,2.72460664 C20.0409765,1.22225854 18.8187191,0 17.3163724,0 L2.72460405,0 C1.22225738,0 0,1.22225854 0,2.72460664 L0,13.68358 C0,15.1859281 1.22225738,16.4081866 2.72460405,16.4081866 L5.50975486,16.4081866 L5.50975486,19.1327933 C5.50975486,19.5001308 5.73105326,19.8312613 6.07041783,19.971851 C6.4097824,20.1124407 6.80043008,20.0346986 7.06017566,19.7750133 L10.4269992,16.4081866 L10.958963,16.4081866 L10.958963,24.6425534 C10.958963,26.1449015 12.1812203,27.36716 13.683567,27.36716 L20.5730008,27.36716 L23.9398243,30.7339867 C24.2000543,30.9942169 24.5908836,31.0711719 24.9295822,30.9308244 C25.2689467,30.7902347 25.4902451,30.4591042 25.4902451,30.0917666 L25.4902451,27.36716 L28.2753959,27.36716 C29.7777426,27.36716 31,26.1449015 31,24.6425534 L31,13.68358 C30.9999395,12.1812319 29.7776821,10.9589734 28.2753354,10.9589734 Z M10.958963,13.68358 L10.958963,14.5917822 L10.0507616,14.5917822 C9.80990662,14.5917822 9.57892074,14.6874462 9.40860272,14.8577644 L7.32615757,16.9402115 L7.32615757,15.4999844 C7.32615757,14.9984146 6.91952555,14.5917822 6.41795621,14.5917822 L2.72460405,14.5917822 C2.22382183,14.5917822 1.8164027,14.1843627 1.8164027,13.68358 L1.8164027,2.72460664 C1.8164027,2.22382394 2.22382183,1.81640443 2.72460405,1.81640443 L17.3163724,1.81640443 C17.8171547,1.81640443 18.2245738,2.22382394 18.2245738,2.72460664 L18.2245738,10.9589734 L13.683567,10.9589734 C12.1812203,10.9589734 10.958963,12.1812319 10.958963,13.68358 Z M29.1835368,24.6425534 C29.1835368,25.1433361 28.7761176,25.5507556 28.2753354,25.5507556 L24.5819832,25.5507556 C24.0804139,25.5507556 23.6737819,25.957388 23.6737819,26.4589578 L23.6737819,27.8991849 L21.5913367,25.8167377 C21.4210793,25.6464195 21.1900328,25.5507556 20.9491778,25.5507556 L13.683567,25.5507556 C13.1827848,25.5507556 12.7753657,25.1433361 12.7753657,24.6425534 L12.7753657,13.68358 C12.7753657,13.1827973 13.1827848,12.7753778 13.683567,12.7753778 L28.2753354,12.7753778 C28.7761176,12.7753778 29.1835368,13.1827973 29.1835368,13.68358 L29.1835368,24.6425534 Z" id="Shape" fill-rule="nonzero"></path>
                    <circle id="Oval" fill-rule="nonzero" cx="6" cy="8" r="1"></circle>
                    <circle id="Oval" fill-rule="nonzero" cx="10" cy="8" r="1"></circle>
                    <circle id="Oval" fill-rule="nonzero" cx="14" cy="8" r="1"></circle>
                    <path d="M25.7206557,20.2340308 C25.3482601,19.9219897 24.7443651,19.9219897 24.371906,20.2340308 C23.4728667,20.9871803 22.2753769,21.4019744 21,21.4019744 C19.7246231,21.4019744 18.5270697,20.9871803 17.628094,20.2340308 C17.2556349,19.9219897 16.6518035,19.9219897 16.2793443,20.2340308 C15.9068852,20.546072 15.9068852,21.0519536 16.2793443,21.3639947 C17.5385716,22.4190112 19.2150828,23 21,23 C22.7849172,23 24.4614284,22.4190112 25.7206557,21.3639947 C26.0931148,21.0519536 26.0931148,20.546072 25.7206557,20.2340308 Z" id="Shape" fill-rule="nonzero"></path>
                    <circle id="Oval" fill-rule="nonzero" cx="17" cy="17" r="1"></circle>
                    <circle id="Oval" fill-rule="nonzero" cx="25" cy="17" r="1"></circle>
                </g>
            </g>
        </g>
    </g>
</svg>