<?xml version="1.0" encoding="UTF-8"?>
<svg width="24px" height="24px" viewBox="0 0 24 24" version="1.1" xmlns="http://www.w3.org/2000/svg" xmlns:xlink="http://www.w3.org/1999/xlink">
    <!-- Generator: Sketch 50.2 (55047) - http://www.bohemiancoding.com/sketch -->
    <title>Icons / White / minimize-white</title>
    <desc>Created with Sketch.</desc>
    <defs></defs>
    <g id="Icons-/-White-/-minimize-white" stroke="none" stroke-width="1" fill="none" fill-rule="evenodd">
        <g id="minimize-white" fill="#FFFFFF" fill-rule="nonzero" stroke="#FFFFFF" stroke-width="0.5">
            <path d="M0.00244897959,0.60244898 L0.00244897959,11.515102 C0.00244897959,11.8481633 0.271836735,12.117551 0.604897959,12.117551 C0.937959184,12.117551 1.20734694,11.8481633 1.20734694,11.515102 L1.20734694,1.2 L22.7681633,1.2 L22.7681633,22.7608163 L12.3893878,22.7608163 C12.0563265,22.7608163 11.7869388,23.0302041 11.7869388,23.3632653 C11.7869388,23.6963265 12.0563265,23.9657143 12.3893878,23.9657143 L23.3608163,23.9657143 C23.6938776,23.9657143 23.9632653,23.6963265 23.9632653,23.3632653 L23.9632653,0.60244898 C23.9632653,0.269387755 23.6938776,0 23.3608163,0 L0.604897959,0 C0.271836735,0 0.00244897959,0.269387755 0.00244897959,0.60244898 Z" id="Shape"></path>
            <path d="M0.00244897959,23.3583673 C0.00244897959,23.6914286 0.271836735,23.9608163 0.604897959,23.9608163 L8.94612245,23.9608163 C9.27918367,23.9608163 9.54857143,23.6914286 9.54857143,23.3583673 L9.54857143,15.0171429 C9.54857143,14.6840816 9.27918367,14.4146939 8.94612245,14.4146939 L0.604897959,14.4146939 C0.271836735,14.4146939 0.00244897959,14.6840816 0.00244897959,15.0171429 C0.00244897959,15.0171429 0.00244897959,23.3583673 0.00244897959,23.3583673 Z M1.20244898,15.6146939 L8.34857143,15.6146939 L8.34857143,22.7608163 L1.20244898,22.7608163 L1.20244898,15.6146939 Z" id="Shape"></path>
            <path d="M11.3412245,6.65632653 C11.0081633,6.65632653 10.7387755,6.92571429 10.7387755,7.25877551 L10.7387755,12.6220408 C10.7387755,12.955102 11.0081633,13.2244898 11.3412245,13.2244898 L16.7044898,13.2244898 C17.037551,13.2244898 17.3069388,12.955102 17.3069388,12.6220408 C17.3069388,12.2889796 17.037551,12.0195918 16.7044898,12.0195918 L12.7910204,12.0195918 L19.5844898,5.22612245 C19.8195918,4.99102041 19.8195918,4.61387755 19.5844898,4.37877551 C19.3493878,4.14367347 18.9722449,4.14367347 18.7371429,4.37877551 L11.9436735,11.1722449 L11.9436735,7.25877551 C11.9436735,6.92571429 11.6742857,6.65632653 11.3412245,6.65632653 Z" id="Shape"></path>
        </g>
    </g>
</svg>