<?xml version="1.0" encoding="UTF-8"?>
<svg width="209px" height="61px" viewBox="0 0 209 61" version="1.1" xmlns="http://www.w3.org/2000/svg" xmlns:xlink="http://www.w3.org/1999/xlink">
    <!-- Generator: Sketch 51.1 (57501) - http://www.bohemiancoding.com/sketch -->
    <title>Aura/Assets/Icon/Input/Aura/Type/Large/Color/O2 Copy</title>
    <desc>Created with Sketch.</desc>
    <defs>
        <path d="M177.680973,60.8995768 C177.216287,60.9657606 176.741309,61 176.258333,61 L10,61 C4.4771525,61 6.76353751e-16,56.5228475 0,51 L0,10 C-6.76353751e-16,4.4771525 4.4771525,-2.53818305e-15 10,-3.55271368e-15 L176.258333,0 C176.741309,-8.87211322e-17 177.216287,0.034239366 177.680973,0.100423195 C178.386722,0.0339060368 179.100379,0 179.820833,0 C194.279188,0 206,13.6553151 206,30.5 C206,47.3446849 194.279188,61 179.820833,61 C179.100379,61 178.386722,60.966094 177.680973,60.8995768 Z" id="path-1"></path>
        <filter x="-10.7%" y="-29.5%" width="121.4%" height="172.1%" filterUnits="objectBoundingBox" id="filter-2">
            <feOffset dx="0" dy="0" in="SourceAlpha" result="shadowOffsetOuter1"></feOffset>
            <feGaussianBlur stdDeviation="6" in="shadowOffsetOuter1" result="shadowBlurOuter1"></feGaussianBlur>
            <feColorMatrix values="0 0 0 0 0   0 0 0 0 0   0 0 0 0 0  0 0 0 0.12 0" type="matrix" in="shadowBlurOuter1" result="shadowMatrixOuter1"></feColorMatrix>
            <feOffset dx="0" dy="4" in="SourceAlpha" result="shadowOffsetOuter2"></feOffset>
            <feGaussianBlur stdDeviation="2" in="shadowOffsetOuter2" result="shadowBlurOuter2"></feGaussianBlur>
            <feColorMatrix values="0 0 0 0 0   0 0 0 0 0   0 0 0 0 0  0 0 0 0.24 0" type="matrix" in="shadowBlurOuter2" result="shadowMatrixOuter2"></feColorMatrix>
            <feMerge>
                <feMergeNode in="shadowMatrixOuter1"></feMergeNode>
                <feMergeNode in="shadowMatrixOuter2"></feMergeNode>
            </feMerge>
        </filter>
    </defs>
    <g id="Aura/Assets/Icon/Input/Aura/Type/Large/Color/O2-Copy" stroke="none" stroke-width="1" fill="none" fill-rule="evenodd">
        <g id="fab" transform="translate(3.000000, 0.000000)">
            <g id="Combined-Shape">
                <use fill="black" fill-opacity="1" filter="url(#filter-2)" xlink:href="#path-1"></use>
                <use fill="#27BDBE" fill-rule="evenodd" xlink:href="#path-1"></use>
            </g>
        </g>
        <text id="Posso-te-ajudar?" font-family="HelveticaNeue-Medium, Helvetica Neue" font-size="15" font-weight="400" line-spacing="20" fill="#FFFFFF">
            <tspan x="25.635" y="34">Posso te ajudar?</tspan>
        </text>
        <g id="Icons-/-White-/-support-generic" transform="translate(165.000000, 15.000000)" fill="#FFFFFF">
            <g id="support-generic">
                <path d="M1.33670051,6.00655934 C0.620253807,6.00655934 0.0372081218,6.58405221 0.0372081218,7.29367561 L0.0372081218,10.7260024 C0.0372081218,11.4356258 0.620253807,12.0131187 1.33670051,12.0131187 C2.05314721,12.0131187 2.63619289,11.4356258 2.63619289,10.7260024 L2.63619289,7.29367561 C2.63619289,6.58405221 2.05314721,6.00655934 1.33670051,6.00655934 Z M1.76989848,10.7259521 C1.76989848,10.9627614 1.57583756,11.1549741 1.33675127,11.1549741 C1.09766497,11.1549741 0.903604061,10.9627614 0.903604061,10.7259521 L0.903604061,7.29362533 C0.903604061,7.05681605 1.09766497,6.86460334 1.33675127,6.86460334 C1.57583756,6.86460334 1.76989848,7.05681605 1.76989848,7.29362533 L1.76989848,10.7259521 Z" id="Shape" fill-rule="nonzero"></path>
                <path d="M18.6632995,6.00655934 C17.9468528,6.00655934 17.3638071,6.58405221 17.3638071,7.29367561 L17.3638071,10.7260024 C17.3638071,11.4356258 17.9468528,12.0131187 18.6632995,12.0131187 C19.3797462,12.0131187 19.9627919,11.4356258 19.9627919,10.7260024 L19.9627919,7.29367561 C19.9627919,6.58405221 19.3797462,6.00655934 18.6632995,6.00655934 Z M19.0964467,10.7259521 C19.0964467,10.9627614 18.9023858,11.1549741 18.6632995,11.1549741 C18.4242132,11.1549741 18.2301523,10.9627614 18.2301523,10.7259521 L18.2301523,7.29362533 C18.2301523,7.05681605 18.4242132,6.86460334 18.6632995,6.86460334 C18.9023858,6.86460334 19.0964467,7.05681605 19.0964467,7.29362533 L19.0964467,10.7259521 Z" id="Shape" fill-rule="nonzero"></path>
                <path d="M18.6884264,6.40812956 C17.5370558,2.63516945 13.9643147,0 10,0 C6.03568528,0 2.46294416,2.63516945 1.3115736,6.40812956 C1.24228426,6.63468214 1.37177665,6.8745081 1.60091371,6.94273532 C1.83050761,7.01181726 2.07177665,6.88310563 2.14106599,6.65615083 C3.18284264,3.24267827 6.41426396,0.858094271 10,0.858094271 C13.585736,0.858094271 16.8171574,3.24267827 17.8588832,6.65615083 C17.9156345,6.84192797 18.0876142,6.96118733 18.273401,6.96118733 C18.3149746,6.96118733 18.3570051,6.95515398 18.3990355,6.94273532 C18.6281726,6.8745081 18.7577157,6.63463186 18.6884264,6.40812956 Z" id="Shape" fill-rule="nonzero"></path>
                <path d="M18.6632995,11.1550244 C18.4242132,11.1550244 18.2301523,11.3467846 18.2301523,11.5840464 C18.2301523,12.7668861 17.2585787,13.7292569 16.0643147,13.7292569 C15.8252284,13.7292569 15.6311675,13.9210172 15.6311675,14.1582789 C15.6311675,14.3955407 15.8252284,14.5873009 16.0643147,14.5873009 C17.7363452,14.5873009 19.0964467,13.2397003 19.0964467,11.5840464 C19.0964467,11.3467846 18.9023858,11.1550244 18.6632995,11.1550244 Z" id="Shape" fill-rule="nonzero"></path>
                <path d="M15.1979695,12.4421407 L12.5989848,12.4421407 C11.8825381,12.4421407 11.2994924,13.0196336 11.2994924,13.7292569 L11.2994924,14.5873512 C11.2994924,15.2969746 11.8825381,15.8744675 12.5989848,15.8744675 L15.1979695,15.8744675 C15.9144162,15.8744675 16.4974619,15.2969746 16.4974619,14.5873512 L16.4974619,13.7292569 C16.4974619,13.0196336 15.9144162,12.4421407 15.1979695,12.4421407 Z M15.6311168,14.5873009 C15.6311168,14.8241102 15.4370558,15.0163229 15.1979695,15.0163229 L12.5989848,15.0163229 C12.3598985,15.0163229 12.1658376,14.8241102 12.1658376,14.5873009 L12.1658376,13.7292067 C12.1658376,13.4923974 12.3598985,13.3001847 12.5989848,13.3001847 L15.1979695,13.3001847 C15.4370558,13.3001847 15.6311168,13.4923974 15.6311168,13.7292067 L15.6311168,14.5873009 Z" id="Shape" fill-rule="nonzero"></path>
                <path d="M10,2.14521054 C6.17817259,2.14521054 3.06939086,5.22483732 3.06939086,9.00981387 C3.06939086,12.7947904 6.17817259,15.8744172 10,15.8744172 C10.7069036,15.8744172 11.4069036,15.7684312 12.0805076,15.5590737 C12.22,15.5153319 12.3282741,15.4050723 12.3677157,15.2656012 C12.4071574,15.1257278 12.3728934,14.976 12.2762944,14.8665951 C12.2260406,14.8099821 12.1658376,14.7151578 12.1658376,14.5873009 L12.1658376,13.7292067 C12.1658376,13.4923974 12.3598985,13.3001847 12.5989848,13.3001847 L15.1888832,13.3001847 C15.3253299,13.3001847 15.4535533,13.2371361 15.5354315,13.1294407 C16.4481218,11.9276964 16.9306599,10.503271 16.9306599,9.00981387 C16.9306091,5.22483732 13.8218274,2.14521054 10,2.14521054 Z M14.9683756,12.4421407 L12.5989848,12.4421407 C11.8825381,12.4421407 11.2994924,13.0196336 11.2994924,13.7292569 L11.2994924,14.5873512 C11.2994924,14.6830302 11.3107614,14.7778545 11.3324365,14.8700643 C10.8957868,14.9674527 10.4496447,15.0163732 10,15.0163732 C6.65598985,15.0163732 3.93568528,12.3220266 3.93568528,9.00981387 C3.93568528,5.69760116 6.65598985,3.00325453 10,3.00325453 C13.3440102,3.00325453 16.0643147,5.69765144 16.0643147,9.00981387 C16.0643147,10.2454455 15.6861421,11.427883 14.9683756,12.4421407 Z" id="Shape" fill-rule="nonzero"></path>
                <path d="M14.4996954,16.7325115 L5.49984772,16.7325115 C2.72675127,16.7325115 0.47035533,18.9673677 0.47035533,21.7141039 L0.47035533,25.3133034 C0.47035533,25.5505651 0.664416244,25.7423254 0.903502538,25.7423254 L19.0963959,25.7423254 C19.3354822,25.7423254 19.5295431,25.5505651 19.5295431,25.3133034 L19.5295431,21.7141039 C19.5295939,18.9673677 17.2732487,16.7325115 14.4996954,16.7325115 Z M18.6632995,24.8842311 L1.33670051,24.8842311 L1.33670051,21.7140537 C1.33670051,19.440584 3.20451777,17.5905555 5.49984772,17.5905555 L14.5001523,17.5905555 C16.7954822,17.5905555 18.6632995,19.4401315 18.6632995,21.7140537 L18.6632995,24.8842311 Z" id="Shape" fill-rule="nonzero"></path>
                <path d="M4.36888325,21.8809766 C4.12979695,21.8809766 3.93573604,22.0727368 3.93573604,22.3099985 L3.93573604,25.3132531 C3.93573604,25.5505149 4.12979695,25.7422751 4.36888325,25.7422751 C4.60796954,25.7422751 4.80203046,25.5505149 4.80203046,25.3132531 L4.80203046,22.3099985 C4.80203046,22.0727368 4.60796954,21.8809766 4.36888325,21.8809766 Z" id="Shape" fill-rule="nonzero"></path>
                <path d="M16.0643147,21.8809766 C15.8252284,21.8809766 15.6311675,22.0727368 15.6311675,22.3099985 L15.6311675,25.3132531 C15.6311675,25.5505149 15.8252284,25.7422751 16.0643147,25.7422751 C16.303401,25.7422751 16.4974619,25.5505149 16.4974619,25.3132531 L16.4974619,22.3099985 C16.4974619,22.0727368 16.303401,21.8809766 16.0643147,21.8809766 Z" id="Shape" fill-rule="nonzero"></path>
            </g>
        </g>
    </g>
</svg>